<mxfile host="app.diagrams.net" modified="2023-07-31T23:48:38.801Z" agent="Mozilla/5.0 (Macintosh; Intel Mac OS X 10_15_7) AppleWebKit/605.1.15 (KHTML, like Gecko) Version/15.6.1 Safari/605.1.15" version="21.6.6" etag="8gpKnzOvIk7THAIqzBNn" type="github">
  <diagram name="Page-1" id="ca7L87nFsl706YWlg5aI">
    <mxGraphModel>
      <root>
        <mxCell id="0" />
        <mxCell id="1" parent="0" />
      </root>
    </mxGraphModel>
  </diagram>
</mxfile>
